<?xml version="1.0" standalone="no"?>
<!DOCTYPE svg PUBLIC "-//W3C//DTD SVG 20010904//EN"
 "http://www.w3.org/TR/2001/REC-SVG-20010904/DTD/svg10.dtd">
<svg version="1.0" xmlns="http://www.w3.org/2000/svg"
 width="700.000000pt" height="700.000000pt" viewBox="0 0 700.000000 700.000000"
 preserveAspectRatio="xMidYMid meet">
<metadata>
Created by potrace 1.14, written by Peter Selinger 2001-2017
</metadata>
<g transform="translate(0.000000,700.000000) scale(0.100000,-0.100000)"
fill="#000000" stroke="none">
<path d="M1256 6989 c-27 -4 -63 -10 -80 -13 -17 -2 -66 -14 -109 -25 -391
-106 -718 -367 -901 -721 -86 -166 -127 -295 -155 -491 -6 -38 -10 -943 -10
-2244 0 -2202 0 -2214 32 -2365 87 -408 363 -769 738 -964 97 -51 273 -117
344 -130 207 -36 116 -35 2415 -32 1218 1 2228 5 2244 8 193 41 302 76 427
138 356 176 628 500 738 880 64 218 60 70 58 2510 -2 1762 -5 2234 -15 2270
-7 25 -20 74 -28 110 -34 142 -122 337 -207 457 -217 310 -520 511 -897 596
l-95 21 -2225 2 c-1224 1 -2247 -2 -2274 -7z"/>
</g>
</svg>
